<svg width="336" height="62" viewBox="0 0 336 62" fill="none" xmlns="http://www.w3.org/2000/svg">
<path d="M7.73966 44.2153C6.08679 41.426 5.57025 28.5128 5.57025 28.5128C6.15832 34.5691 8.04959 39.5665 9.90909 42.6657C11.7686 45.7649 18.9887 47.5068 26.3347 49.8971C26.3347 49.8971 10.5289 46.6946 7.73966 44.2153Z" fill="white"/>
<path d="M0.714868 52.6863C0.818174 51.6532 2.36776 47.7276 2.36776 42.9756C2.36776 42.9756 3.53087 44.4024 4.02066 47.8309C5.65327 50.4431 9.58344 51.4699 14.9711 53.4094C20.3587 55.349 24.1735 55.4423 33.1529 56.0954C42.1323 56.7484 55.7768 54.0293 55.7768 52.583C56.1034 53.5626 57.7611 58.1442 57.6987 58.4111C57.6363 58.678 54.6405 59.1946 49.7851 60.021C44.9298 60.8475 40.8081 61.3006 35.7355 60.9508C29.9594 60.5524 28.814 59.2979 15.4876 56.0954C2.16115 52.8929 0.611562 53.7194 0.714868 52.6863Z" fill="white"/>
<path fill-rule="evenodd" clip-rule="evenodd" d="M53.6568 11.8665C50.2939 5.97406 45.7592 3.87503 40.8115 1.77599C35.4238 -0.509673 26.2812 -0.672913 19.2609 1.77599C12.2407 4.22489 7.22416 11.0819 7.22416 11.0819C7.22416 11.0819 0.693687 18.7552 1.02021 31.6528C1.1794 37.9409 1.73395 43.133 1.97689 45.4077C2.01043 45.7216 2.03802 45.98 2.05783 46.1781C2.22109 47.8107 8.53025 51.5708 11.3057 52.3871C11.9209 52.568 12.5281 52.7891 13.1967 53.0325C15.5441 53.8871 18.6476 55.0169 25.5094 55.6523C26.6065 55.7539 27.5696 55.8453 28.4295 55.927C34.48 56.5016 35.4234 56.5912 41.9989 56.3053C47.0782 56.0845 49.5233 55.6396 52.0893 55.1727C53.3172 54.9493 54.5728 54.7208 56.158 54.5094C56.1747 54.3262 56.1574 54.1396 56.1128 53.9522C54.6863 54.144 53.326 54.3862 51.9145 54.6375C48.8404 55.1847 45.5238 55.7751 40.7535 55.9822C38.1277 56.0963 36.7547 55.2013 35.3978 54.3169C34.2737 53.5843 33.1607 52.8588 31.3556 52.7202C30.5068 52.6116 29.7125 52.5111 28.9656 52.4166C22.7016 51.6241 19.775 51.2539 16.033 50.0699C15.1489 49.7901 14.1826 49.4915 13.2063 49.1898C9.55815 48.0625 5.77118 46.8923 5.61369 46.502C5.41406 46.0074 4.09701 37.8159 3.92829 31.1598C3.6242 19.1632 9.73999 11.5057 9.73999 11.5057C9.73999 11.5057 14.8253 5.08418 21.3634 2.80637C27.9014 0.528553 37.3703 1.35842 42.3879 3.4844C46.7104 5.31587 50.6162 7.12784 53.6568 11.8665ZM55.3883 45.012C54.9441 46.2791 54.4326 47.5243 53.8482 48.7354C53.8482 48.7354 53.8945 48.8014 53.974 48.9195C54.5132 47.6428 54.9829 46.3364 55.3883 45.012Z" fill="white"/>
<path d="M24.8884 35.1244C25.0226 34.3271 25.579 30.6071 25.579 30.6071C25.579 30.6071 29.0983 14.0739 29.7543 13.3851C30.4102 12.6962 42.3852 6.6685 45.3306 6.84072C48.276 7.01294 53.9936 13.3851 53.9936 13.3851C56.9835 19.4228 57.904 23.2084 58.3251 30.6071C57.871 39.463 56.5529 43.8803 52.261 50.7568C52.261 50.7568 44.4643 52.6512 39.2665 52.1345C34.0687 51.6179 24.7543 35.9216 24.8884 35.1244Z" fill="white"/>
<path d="M27.424 35.2446C27.4803 34.0219 28.2403 31.3263 28.2403 31.3263L32.4851 14.3471C32.4851 14.3471 44.0767 8.63296 46.8522 8.79622C49.6276 8.95948 55.0152 15.0002 55.0152 15.0002C57.8326 20.7238 58.7 24.3126 59.0968 31.3263C58.6689 39.7216 57.4269 43.9091 53.3826 50.4279C53.3826 50.4279 46.0359 52.2238 41.138 51.734C36.2402 51.2442 27.3678 36.4673 27.424 35.2446Z" fill="black" stroke="white"/>
<circle cx="28.7747" cy="22.3469" r="8.65286" fill="black"/>
<path fill-rule="evenodd" clip-rule="evenodd" d="M28.5669 31.3263C33.526 31.3263 37.5463 27.3061 37.5463 22.3469C37.5463 17.3877 33.526 13.3675 28.5669 13.3675C27.5184 13.3675 26.5119 13.5472 25.5765 13.8775C26.1338 13.7573 26.7122 13.6941 27.3053 13.6941C31.8137 13.6941 35.4684 17.3488 35.4684 21.8572C35.4684 26.3655 31.8137 30.0202 27.3053 30.0202C24.5556 30.0202 22.1233 28.6606 20.6442 26.5769C22.1565 29.4034 25.1371 31.3263 28.5669 31.3263Z" fill="white"/>
<path fill-rule="evenodd" clip-rule="evenodd" d="M26.1662 26.1019C29.0515 26.1019 31.3906 23.7629 31.3906 20.8776C31.3906 18.1265 29.2641 15.872 26.5652 15.6682C26.703 15.6583 26.8422 15.6532 26.9825 15.6532C30.1384 15.6532 32.6967 18.2115 32.6967 21.3674C32.6967 24.5232 30.1384 27.0815 26.9825 27.0815C24.6487 27.0815 22.6417 25.6824 21.7545 23.6771C22.6814 25.1348 24.3108 26.1019 26.1662 26.1019Z" fill="white"/>
<path d="M40.3409 48.278C39.9613 48.278 38.5179 46.9084 37.553 45.9573C36.5882 45.0063 30.0962 37.9394 31.19 37.5004C31.7464 37.2771 32.802 37.9874 34.0826 39.9797C34.8461 41.1676 36.9745 43.9288 38.7314 45.9573C39.8207 47.2151 40.7204 48.278 40.3409 48.278Z" fill="white"/>
<path d="M52.6109 16.1698C54.0802 17.4759 56.8557 26.292 56.6924 30.5368C56.5292 34.7816 55.3864 37.2037 52.6109 46.8362C53.7475 41.1035 54.7333 35.7344 55.0598 31.6528C55.3863 27.5713 46.8967 22.0472 48.5294 19.7347C50.162 17.4223 46.1058 16.4288 44.3099 13.3268C44.3529 13.0896 51.1416 14.8637 52.6109 16.1698Z" fill="white"/>
<path d="M32.1675 2.7499C37.8168 3.08168 43.1735 5.99209 43.1735 5.99209C39.0413 4.54581 36.4587 4.07372 32.0165 3.92597C27.0578 3.76104 24.8884 4.23589 20.1074 5.07833C20.1074 5.07833 26.5182 2.41813 32.1675 2.7499Z" fill="white"/>
<path d="M10.4256 13.0169C13.7158 8.41257 18.0702 5.78548 18.0702 5.78548C16.6239 8.47143 17.1405 6.1987 13.5248 10.7442C9.90907 15.2896 8.63624 17.6525 6.60328 22.0045C6.60328 22.0045 7.13544 17.6212 10.4256 13.0169Z" fill="white"/>
<path d="M56.0868 53.7194L55.5703 52.0665C55.6649 52.9976 54.9433 53.5842 53.0909 54.0293L54.6405 53.7194H56.0868Z" fill="white"/>
<path d="M80.5938 16.3475H87.1138C89.3804 16.3475 91.0338 16.8808 92.0738 17.9475C93.1138 18.9875 93.6338 20.6008 93.6338 22.7875V24.5075C93.6338 27.4141 92.6738 29.2541 90.7538 30.0275V30.1075C91.8204 30.4275 92.5671 31.0808 92.9938 32.0675C93.4471 33.0541 93.6738 34.3741 93.6738 36.0275V40.9475C93.6738 41.7475 93.7004 42.4008 93.7538 42.9075C93.8071 43.3875 93.9404 43.8675 94.1538 44.3475H89.6738C89.5138 43.8941 89.4071 43.4675 89.3538 43.0675C89.3004 42.6675 89.2738 41.9475 89.2738 40.9075V35.7875C89.2738 34.5075 89.0604 33.6141 88.6338 33.1075C88.2338 32.6008 87.5271 32.3475 86.5138 32.3475H84.9938V44.3475H80.5938V16.3475ZM86.5938 28.3475C87.4738 28.3475 88.1271 28.1208 88.5538 27.6675C89.0071 27.2141 89.2338 26.4541 89.2338 25.3875V23.2275C89.2338 22.2141 89.0471 21.4808 88.6738 21.0275C88.3271 20.5741 87.7671 20.3475 86.9938 20.3475H84.9938V28.3475H86.5938ZM104.127 16.3475H110.087L114.647 44.3475H110.247L109.447 38.7875V38.8675H104.447L103.647 44.3475H99.5666L104.127 16.3475ZM108.927 35.0675L106.967 21.2275H106.887L104.967 35.0675H108.927ZM120.781 16.3475H127.501C129.688 16.3475 131.328 16.9341 132.421 18.1075C133.515 19.2808 134.061 21.0008 134.061 23.2675V37.4275C134.061 39.6941 133.515 41.4141 132.421 42.5875C131.328 43.7608 129.688 44.3475 127.501 44.3475H120.781V16.3475ZM127.421 40.3475C128.141 40.3475 128.688 40.1341 129.061 39.7075C129.461 39.2808 129.661 38.5875 129.661 37.6275V23.0675C129.661 22.1075 129.461 21.4141 129.061 20.9875C128.688 20.5608 128.141 20.3475 127.421 20.3475H125.181V40.3475H127.421ZM141.031 16.3475H153.031V20.3475H145.431V27.7475H151.471V31.7475H145.431V40.3475H153.031V44.3475H141.031V16.3475ZM159.563 16.3475H163.963V28.1475L169.563 16.3475H173.963L168.723 26.6275L174.043 44.3475H169.443L165.723 31.8675L163.963 35.4275V44.3475H159.563V16.3475ZM189.491 16.3475H193.731L195.691 37.8675H195.771L197.851 16.3475H202.651L204.731 37.8675H204.811L206.771 16.3475H210.571L207.731 44.3475H202.251L200.251 25.4675H200.171L198.171 44.3475H192.331L189.491 16.3475ZM219.65 16.3475H225.61L230.17 44.3475H225.77L224.97 38.7875V38.8675H219.97L219.17 44.3475H215.09L219.65 16.3475ZM224.45 35.0675L222.49 21.2275H222.41L220.49 35.0675H224.45ZM234.718 16.3475H238.958L240.918 37.8675H240.998L243.078 16.3475H247.878L249.958 37.8675H250.038L251.998 16.3475H255.798L252.958 44.3475H247.478L245.478 25.4675H245.398L243.398 44.3475H237.558L234.718 16.3475ZM262.023 16.3475H268.543C270.81 16.3475 272.463 16.8808 273.503 17.9475C274.543 18.9875 275.063 20.6008 275.063 22.7875V24.5075C275.063 27.4141 274.103 29.2541 272.183 30.0275V30.1075C273.25 30.4275 273.997 31.0808 274.423 32.0675C274.877 33.0541 275.103 34.3741 275.103 36.0275V40.9475C275.103 41.7475 275.13 42.4008 275.183 42.9075C275.237 43.3875 275.37 43.8675 275.583 44.3475H271.103C270.943 43.8941 270.837 43.4675 270.783 43.0675C270.73 42.6675 270.703 41.9475 270.703 40.9075V35.7875C270.703 34.5075 270.49 33.6141 270.063 33.1075C269.663 32.6008 268.957 32.3475 267.943 32.3475H266.423V44.3475H262.023V16.3475ZM268.023 28.3475C268.903 28.3475 269.557 28.1208 269.983 27.6675C270.437 27.2141 270.663 26.4541 270.663 25.3875V23.2275C270.663 22.2141 270.477 21.4808 270.103 21.0275C269.757 20.5741 269.197 20.3475 268.423 20.3475H266.423V28.3475H268.023ZM281.276 40.4275L289.436 20.3475H281.676V16.3475H294.156V20.2675L285.996 40.3475H294.156V44.3475H281.276V40.4275ZM304.688 32.4275L299.368 16.3475H304.048L307.048 26.6275H307.128L310.128 16.3475H314.408L309.088 32.4275V44.3475H304.688V32.4275ZM320.391 16.3475H324.791V28.1475L330.391 16.3475H334.791L329.551 26.6275L334.871 44.3475H330.271L326.551 31.8675L324.791 35.4275V44.3475H320.391V16.3475Z" fill="white"/>
</svg>
